<!-- Generated by IcoMoon.io -->
<svg version="1.1" xmlns="http://www.w3.org/2000/svg" width="32" height="32" viewBox="0 0 32 32">
<title>bag-17</title>
<path d="M26.667 0h-21.333c-2.267 0-4 1.733-4 4v26.667c0 0.8 0.533 1.333 1.333 1.333h26.667c0.8 0 1.333-0.533 1.333-1.333v-26.667c0-2.267-1.733-4-4-4zM16 21.333c-4.4 0-8-3.6-8-8 0-0.8 0.533-1.333 1.333-1.333s1.333 0.533 1.333 1.333c0 2.933 2.4 5.333 5.333 5.333s5.333-2.4 5.333-5.333c0-0.8 0.533-1.333 1.333-1.333s1.333 0.533 1.333 1.333c0 4.4-3.6 8-8 8zM26.667 5.333h-21.333c-0.8 0-1.333-0.533-1.333-1.333s0.533-1.333 1.333-1.333h21.333c0.8 0 1.333 0.533 1.333 1.333s-0.533 1.333-1.333 1.333z"></path>
</svg>
