<!-- Generated by IcoMoon.io -->
<svg version="1.1" xmlns="http://www.w3.org/2000/svg" width="32" height="32" viewBox="0 0 32 32">
<title>basket</title>
<path d="M2.667 28c0 2.209 1.791 4 4 4v0h18.667c2.209 0 4-1.791 4-4v0-9.333h-26.667z"></path>
<path d="M26.235 10.667l-4.445-8.893c-0.338-0.654-1.009-1.093-1.782-1.093-1.105 0-2 0.895-2 2 0 0.32 0.075 0.623 0.209 0.891l-0.005-0.012 3.555 7.107h-11.531l3.555-7.107c0.129-0.257 0.204-0.559 0.204-0.879 0-1.105-0.895-2-2-2-0.774 0-1.444 0.439-1.777 1.082l-0.005 0.011-4.445 8.893h-5.765v5.333h32v-5.333z"></path>
</svg>
