<!-- Generated by IcoMoon.io -->
<svg version="1.1" xmlns="http://www.w3.org/2000/svg" width="32" height="32" viewBox="0 0 32 32">
<title>bell</title>
<path d="M26.667 13.333v-2.667c0-5.891-4.776-10.667-10.667-10.667s-10.667 4.776-10.667 10.667v0 2.667c-0.071 1.706-0.853 3.216-2.055 4.251l-0.008 0.007c-1.078 0.923-1.797 2.237-1.936 3.721l-0.002 0.022c0 3.333 5.483 5.333 14.667 5.333s14.667-2 14.667-5.333c-0.14-1.505-0.859-2.82-1.93-3.736l-0.008-0.006c-1.21-1.042-1.992-2.552-2.062-4.245l-0-0.012z"></path>
<path d="M12.193 29.2c0.524 1.634 2.030 2.796 3.807 2.796s3.283-1.162 3.799-2.768l0.008-0.028c-1.192 0.088-2.459 0.133-3.807 0.133s-2.615-0.043-3.807-0.133z"></path>
</svg>
