<!-- Generated by IcoMoon.io -->
<svg version="1.1" xmlns="http://www.w3.org/2000/svg" width="32" height="32" viewBox="0 0 32 32">
<title>calendar-date</title>
<path d="M5.333 13.333h5.333v4h-5.333v-4z"></path>
<path d="M13.333 13.333h5.333v4h-5.333v-4z"></path>
<path d="M5.333 20h5.333v4h-5.333v-4z"></path>
<path d="M13.333 20h5.333v4h-5.333v-4z"></path>
<path d="M21.333 13.333h5.333v4h-5.333v-4z"></path>
<path d="M30.667 4h-6.667v-2.667c0-0.736-0.597-1.333-1.333-1.333s-1.333 0.597-1.333 1.333v0 2.667h-10.667v-2.667c0-0.736-0.597-1.333-1.333-1.333s-1.333 0.597-1.333 1.333v0 2.667h-6.667c-0.736 0-1.333 0.597-1.333 1.333v0 24c0 0.736 0.597 1.333 1.333 1.333v0h29.333c0.736 0 1.333-0.597 1.333-1.333v0-24c0-0.736-0.597-1.333-1.333-1.333v0zM29.333 28h-26.667v-18.667h26.667z"></path>
</svg>
