<!-- Generated by IcoMoon.io -->
<svg version="1.1" xmlns="http://www.w3.org/2000/svg" width="32" height="32" viewBox="0 0 32 32">
<title>hat-3</title>
<path d="M29.333 14.667h2.667v8h-2.667v-8z"></path>
<path d="M17.655 20.973c-0.525 0.24-1.081 0.36-1.655 0.36s-1.129-0.12-1.653-0.359l-9.013-4.097v7.123c0 3.501 5.365 5.333 10.667 5.333s10.667-1.832 10.667-5.333v-7.121l-9.012 4.095z"></path>
<path d="M31.219 9.453l-14.667-6.667c-0.351-0.159-0.752-0.159-1.103 0l-14.667 6.667c-0.477 0.216-0.783 0.689-0.783 1.213s0.305 0.997 0.781 1.213l14.667 6.667c0.176 0.080 0.364 0.12 0.552 0.12s0.376-0.040 0.552-0.12l14.667-6.667c0.476-0.216 0.781-0.689 0.781-1.213s-0.305-0.997-0.781-1.213z"></path>
</svg>
