<!-- Generated by IcoMoon.io -->
<svg version="1.1" xmlns="http://www.w3.org/2000/svg" width="32" height="32" viewBox="0 0 32 32">
<title>menu-8</title>
<path d="M29.333 24h-26.667c-1.473 0-2.667 1.194-2.667 2.667s1.194 2.667 2.667 2.667v0h26.667c1.473 0 2.667-1.194 2.667-2.667s-1.194-2.667-2.667-2.667v0z"></path>
<path d="M29.333 2.667h-26.667c-1.473 0-2.667 1.194-2.667 2.667s1.194 2.667 2.667 2.667v0h26.667c1.473 0 2.667-1.194 2.667-2.667s-1.194-2.667-2.667-2.667v0z"></path>
<path d="M29.333 13.333h-26.667c-1.473 0-2.667 1.194-2.667 2.667s1.194 2.667 2.667 2.667v0h26.667c1.473 0 2.667-1.194 2.667-2.667s-1.194-2.667-2.667-2.667v0z"></path>
</svg>
