<!-- Generated by IcoMoon.io -->
<svg version="1.1" xmlns="http://www.w3.org/2000/svg" width="32" height="32" viewBox="0 0 32 32">
<title>palette</title>
<path d="M27.2 8.133c-1.467-0.667-2.933-1.067-4.533-1.067-2.133 0-4 0.667-5.733 1.2-1.067 0.4-2.133 0.667-2.933 0.667-0.533 0-0.8-0.133-0.933-0.4 0-0.133 0.133-0.8 0.267-1.2 0.4-1.2 0.8-2.667-0.267-4.133-0.667-0.8-1.733-1.333-2.933-1.333s-2.267 0.4-3.333 1.067c-4.267 2.933-6.8 7.867-6.8 13.067 0 8.8 7.2 16 16 16 7.067 0 13.467-4.8 15.467-11.733 0.133-0.8 2-9.067-4.267-12.133zM4 16c0-1.467 1.2-2.667 2.667-2.667s2.667 1.2 2.667 2.667-1.2 2.667-2.667 2.667-2.667-1.2-2.667-2.667zM10 25.333c-1.467 0-2.667-1.2-2.667-2.667s1.2-2.667 2.667-2.667 2.667 1.2 2.667 2.667-1.2 2.667-2.667 2.667zM17.333 28c-1.467 0-2.667-1.2-2.667-2.667s1.2-2.667 2.667-2.667 2.667 1.2 2.667 2.667-1.2 2.667-2.667 2.667zM22.667 20c-2.267 0-4-1.733-4-4s1.733-4 4-4 4 1.733 4 4-1.733 4-4 4z"></path>
</svg>
