<!-- Generated by IcoMoon.io -->
<svg version="1.1" xmlns="http://www.w3.org/2000/svg" width="32" height="32" viewBox="0 0 32 32">
<title>search-zoom-in</title>
<path d="M20 16h-4v4h-4v-4h-4v-4h4v-4h4v4h4v4z"></path>
<path d="M14 28c-7.72 0-14-6.28-14-14s6.28-14 14-14 14 6.28 14 14-6.28 14-14 14zM14 4c-5.514 0-10 4.486-10 10s4.486 10 10 10 10-4.486 10-10-4.486-10-10-10z"></path>
<path d="M31.414 28.586l-4.786-4.786c-0.822 1.058-1.77 2.006-2.828 2.828l4.786 4.786c0.39 0.39 0.902 0.586 1.414 0.586s1.024-0.196 1.414-0.586c0.782-0.782 0.782-2.046 0-2.828z"></path>
</svg>
