<!-- Generated by IcoMoon.io -->
<svg version="1.1" xmlns="http://www.w3.org/2000/svg" width="32" height="32" viewBox="0 0 32 32">
<title>spaceship</title>
<path d="M31.44 0.565c-0.242-0.243-0.576-0.394-0.946-0.394-0.024 0-0.048 0.001-0.072 0.002l0.003-0c-18.704 0.976-25.613 17.637-25.68 17.805-0.061 0.147-0.096 0.319-0.096 0.498 0 0.368 0.149 0.701 0.39 0.942l7.543 7.543c0.241 0.241 0.574 0.39 0.942 0.39 0.182 0 0.355-0.036 0.513-0.102l-0.009 0.003c0.167-0.068 16.739-7.055 17.797-25.671 0.001-0.023 0.002-0.049 0.002-0.076 0-0.367-0.148-0.699-0.388-0.94l0 0zM20.552 15.219c-0.483 0.483-1.149 0.781-1.886 0.781-1.473 0-2.667-1.194-2.667-2.667s1.194-2.667 2.667-2.667c0.737 0 1.403 0.299 1.886 0.781v0c0.482 0.483 0.781 1.149 0.781 1.885s-0.298 1.403-0.781 1.885v0z"></path>
<path d="M1.484 25.125c0.687-0.692 1.639-1.12 2.69-1.12 2.094 0 3.792 1.698 3.792 3.792 0 1.052-0.428 2.003-1.12 2.69l-0 0c-1.481 1.481-6.847 1.512-6.847 1.512s0-5.395 1.484-6.875z"></path>
<path d="M13.809 3.121c-0.613-0.112-1.317-0.176-2.037-0.176-3.285 0-6.258 1.333-8.409 3.488l-0 0c-0.695 0.702-1.306 1.489-1.815 2.344l-0.031 0.056c-0.116 0.194-0.184 0.427-0.184 0.677 0 0.368 0.149 0.702 0.391 0.943v0l2.652 2.653c2.519-3.958 5.662-7.276 9.328-9.913l0.106-0.072z"></path>
<path d="M28.879 18.191c0.112 0.613 0.176 1.317 0.176 2.037 0 3.285-1.333 6.258-3.488 8.409l-0 0c-0.702 0.695-1.489 1.306-2.344 1.815l-0.056 0.031c-0.194 0.116-0.427 0.184-0.677 0.184-0.368 0-0.702-0.149-0.943-0.391v0l-2.653-2.652c3.958-2.519 7.276-5.662 9.913-9.328l0.072-0.106z"></path>
</svg>
