<!-- Generated by IcoMoon.io -->
<svg version="1.1" xmlns="http://www.w3.org/2000/svg" width="32" height="32" viewBox="0 0 32 32">
<title>support</title>
<path d="M16 0c-8.8 0-16 7.2-16 16s7.2 16 16 16 16-7.2 16-16c0-8.8-7.2-16-16-16zM16 20c-2.2 0-4-1.8-4-4s1.8-4 4-4 4 1.8 4 4c0 2.2-1.8 4-4 4zM16 4c1.8 0 3.6 0.4 5.2 1.2l-3.112 3.112c-1.522-0.414-2.654-0.414-4.178 0l-3.11-3.112c1.6-0.8 3.4-1.2 5.2-1.2zM4 16c0-1.8 0.4-3.6 1.2-5.2l3.112 3.112c-0.414 1.522-0.414 2.654 0 4.178l-3.112 3.11c-0.8-1.6-1.2-3.4-1.2-5.2zM16 28c-1.8 0-3.6-0.4-5.2-1.2l3.112-3.112c1.522 0.414 2.654 0.414 4.178 0l3.11 3.112c-1.6 0.8-3.4 1.2-5.2 1.2zM26.8 21.2l-3.112-3.112c0.414-1.522 0.414-2.654 0-4.178l3.112-3.11c0.8 1.6 1.2 3.4 1.2 5.2s-0.4 3.6-1.2 5.2z"></path>
</svg>
