<!-- Generated by IcoMoon.io -->
<svg version="1.1" xmlns="http://www.w3.org/2000/svg" width="32" height="32" viewBox="0 0 32 32">
<title>switches</title>
<path d="M8.667 14.667h14.667c4 0 7.333-3.333 7.333-7.333s-3.333-7.333-7.333-7.333h-14.667c-4 0-7.333 3.333-7.333 7.333s3.333 7.333 7.333 7.333zM8.667 2.667c2.533 0 4.667 2.133 4.667 4.667s-2.133 4.667-4.667 4.667-4.667-2.133-4.667-4.667 2.133-4.667 4.667-4.667z"></path>
<path d="M23.333 17.333h-14.667c-4 0-7.333 3.333-7.333 7.333s3.333 7.333 7.333 7.333h14.667c4 0 7.333-3.333 7.333-7.333s-3.333-7.333-7.333-7.333zM23.333 29.333c-2.533 0-4.667-2.133-4.667-4.667s2.133-4.667 4.667-4.667 4.667 2.133 4.667 4.667-2.133 4.667-4.667 4.667z"></path>
</svg>
